<mxfile host="65bd71144e">
    <diagram id="XR9JINMe75p2_KQXhSPS" name="fifo">
        <mxGraphModel dx="922" dy="608" grid="1" gridSize="10" guides="1" tooltips="1" connect="1" arrows="1" fold="1" page="0" pageScale="1" pageWidth="850" pageHeight="1100" math="0" shadow="0">
            <root>
                <mxCell id="0"/>
                <mxCell id="1" parent="0"/>
                <mxCell id="2" value="" style="rounded=1;whiteSpace=wrap;html=1;arcSize=8;fillOpacity=100;fillColor=#dae8fc;strokeColor=#6c8ebf;" parent="1" vertex="1">
                    <mxGeometry x="440" y="240" width="240" height="240" as="geometry"/>
                </mxCell>
                <mxCell id="3" value="fifo.vhd" style="text;html=1;align=center;verticalAlign=middle;resizable=0;points=[];autosize=1;strokeColor=none;fillColor=none;fontSize=20;" parent="1" vertex="1">
                    <mxGeometry x="600" y="450" width="80" height="30" as="geometry"/>
                </mxCell>
                <mxCell id="4" value="" style="endArrow=none;html=1;fontSize=20;" parent="1" edge="1">
                    <mxGeometry width="50" height="50" relative="1" as="geometry">
                        <mxPoint x="401" y="400" as="sourcePoint"/>
                        <mxPoint x="441" y="400" as="targetPoint"/>
                    </mxGeometry>
                </mxCell>
                <mxCell id="5" value="clk" style="edgeLabel;html=1;align=center;verticalAlign=middle;resizable=0;points=[];fontSize=20;" parent="4" vertex="1" connectable="0">
                    <mxGeometry x="-0.4917" y="-1" relative="1" as="geometry">
                        <mxPoint x="-28" y="-2" as="offset"/>
                    </mxGeometry>
                </mxCell>
                <mxCell id="6" value="" style="endArrow=none;html=1;fontSize=20;" parent="1" edge="1">
                    <mxGeometry width="50" height="50" relative="1" as="geometry">
                        <mxPoint x="401" y="440" as="sourcePoint"/>
                        <mxPoint x="441" y="440" as="targetPoint"/>
                    </mxGeometry>
                </mxCell>
                <mxCell id="7" value="rst_n" style="edgeLabel;html=1;align=center;verticalAlign=middle;resizable=0;points=[];fontSize=20;" parent="6" vertex="1" connectable="0">
                    <mxGeometry x="-0.4917" y="-1" relative="1" as="geometry">
                        <mxPoint x="-36" y="-2" as="offset"/>
                    </mxGeometry>
                </mxCell>
                <mxCell id="10" value="4" style="endArrow=none;html=1;fontSize=20;" parent="1" edge="1">
                    <mxGeometry x="1" y="14" width="50" height="50" relative="1" as="geometry">
                        <mxPoint x="411" y="290" as="sourcePoint"/>
                        <mxPoint x="431" y="270" as="targetPoint"/>
                        <mxPoint as="offset"/>
                    </mxGeometry>
                </mxCell>
                <mxCell id="11" value="din" style="shape=link;html=1;fontSize=20;" parent="1" edge="1">
                    <mxGeometry x="-1" y="-20" width="100" relative="1" as="geometry">
                        <mxPoint x="401" y="280" as="sourcePoint"/>
                        <mxPoint x="441" y="280" as="targetPoint"/>
                        <mxPoint x="-20" y="-20" as="offset"/>
                    </mxGeometry>
                </mxCell>
                <mxCell id="14" value="4" style="endArrow=none;html=1;fontSize=20;" parent="1" edge="1">
                    <mxGeometry x="1" y="14" width="50" height="50" relative="1" as="geometry">
                        <mxPoint x="690" y="290" as="sourcePoint"/>
                        <mxPoint x="710" y="270" as="targetPoint"/>
                        <mxPoint as="offset"/>
                    </mxGeometry>
                </mxCell>
                <mxCell id="15" value="dout" style="shape=link;fontSize=20;html=1;" parent="1" edge="1">
                    <mxGeometry x="1" y="29" width="100" relative="1" as="geometry">
                        <mxPoint x="680" y="280" as="sourcePoint"/>
                        <mxPoint x="720" y="280" as="targetPoint"/>
                        <mxPoint x="29" y="29" as="offset"/>
                    </mxGeometry>
                </mxCell>
                <mxCell id="16" value="" style="endArrow=none;html=1;fontSize=20;" parent="1" edge="1">
                    <mxGeometry width="50" height="50" relative="1" as="geometry">
                        <mxPoint x="401" y="360" as="sourcePoint"/>
                        <mxPoint x="441" y="360" as="targetPoint"/>
                    </mxGeometry>
                </mxCell>
                <mxCell id="17" value="wr_en" style="edgeLabel;html=1;align=center;verticalAlign=middle;resizable=0;points=[];fontSize=20;" parent="16" vertex="1" connectable="0">
                    <mxGeometry x="-0.4917" y="-1" relative="1" as="geometry">
                        <mxPoint x="-41" y="-4" as="offset"/>
                    </mxGeometry>
                </mxCell>
                <mxCell id="18" value="" style="endArrow=none;html=1;fontSize=20;" parent="1" edge="1">
                    <mxGeometry width="50" height="50" relative="1" as="geometry">
                        <mxPoint x="680" y="440" as="sourcePoint"/>
                        <mxPoint x="720" y="440" as="targetPoint"/>
                    </mxGeometry>
                </mxCell>
                <mxCell id="19" value="full" style="edgeLabel;html=1;align=center;verticalAlign=middle;resizable=0;points=[];fontSize=20;" parent="18" vertex="1" connectable="0">
                    <mxGeometry x="-0.4917" y="-1" relative="1" as="geometry">
                        <mxPoint x="46" y="-2" as="offset"/>
                    </mxGeometry>
                </mxCell>
                <mxCell id="20" value="" style="endArrow=none;html=1;fontSize=20;" edge="1" parent="1">
                    <mxGeometry width="50" height="50" relative="1" as="geometry">
                        <mxPoint x="401" y="320" as="sourcePoint"/>
                        <mxPoint x="441" y="320" as="targetPoint"/>
                    </mxGeometry>
                </mxCell>
                <mxCell id="21" value="en" style="edgeLabel;html=1;align=center;verticalAlign=middle;resizable=0;points=[];fontSize=20;" vertex="1" connectable="0" parent="20">
                    <mxGeometry x="-0.4917" y="-1" relative="1" as="geometry">
                        <mxPoint x="-26" y="-4" as="offset"/>
                    </mxGeometry>
                </mxCell>
            </root>
        </mxGraphModel>
    </diagram>
    <diagram id="me9v8JgoreOUh-4LgIl1" name="ethernet_tx">
        <mxGraphModel dx="1261" dy="832" grid="1" gridSize="10" guides="1" tooltips="1" connect="1" arrows="1" fold="1" page="0" pageScale="1" pageWidth="850" pageHeight="1100" math="0" shadow="0">
            <root>
                <mxCell id="9l6ZjawQ-9BJJDV0EYVd-0"/>
                <mxCell id="9l6ZjawQ-9BJJDV0EYVd-1" parent="9l6ZjawQ-9BJJDV0EYVd-0"/>
                <UserObject label="" link="data:page/id,XR9JINMe75p2_KQXhSPS" id="86TaP4VS1eTUddmF3khq-0">
                    <mxCell style="rounded=1;whiteSpace=wrap;html=1;arcSize=8;fillOpacity=100;fillColor=#dae8fc;strokeColor=#6c8ebf;" vertex="1" parent="9l6ZjawQ-9BJJDV0EYVd-1">
                        <mxGeometry x="491.47" y="190" width="240" height="240" as="geometry"/>
                    </mxCell>
                </UserObject>
                <mxCell id="86TaP4VS1eTUddmF3khq-1" value="fifo.vhd" style="text;html=1;align=center;verticalAlign=middle;resizable=0;points=[];autosize=1;strokeColor=none;fillColor=none;fontSize=20;" vertex="1" parent="9l6ZjawQ-9BJJDV0EYVd-1">
                    <mxGeometry x="651.47" y="400" width="80" height="30" as="geometry"/>
                </mxCell>
                <mxCell id="86TaP4VS1eTUddmF3khq-2" value="" style="endArrow=none;html=1;fontSize=20;" edge="1" parent="9l6ZjawQ-9BJJDV0EYVd-1">
                    <mxGeometry width="50" height="50" relative="1" as="geometry">
                        <mxPoint x="452.47" y="350" as="sourcePoint"/>
                        <mxPoint x="492.47" y="350" as="targetPoint"/>
                    </mxGeometry>
                </mxCell>
                <mxCell id="86TaP4VS1eTUddmF3khq-3" value="tx_clk" style="edgeLabel;html=1;align=center;verticalAlign=middle;resizable=0;points=[];fontSize=20;" vertex="1" connectable="0" parent="86TaP4VS1eTUddmF3khq-2">
                    <mxGeometry x="-0.4917" y="-1" relative="1" as="geometry">
                        <mxPoint x="-43" y="-2" as="offset"/>
                    </mxGeometry>
                </mxCell>
                <mxCell id="86TaP4VS1eTUddmF3khq-4" value="" style="endArrow=none;html=1;fontSize=20;" edge="1" parent="9l6ZjawQ-9BJJDV0EYVd-1">
                    <mxGeometry width="50" height="50" relative="1" as="geometry">
                        <mxPoint x="452.47" y="390" as="sourcePoint"/>
                        <mxPoint x="492.47" y="390" as="targetPoint"/>
                    </mxGeometry>
                </mxCell>
                <mxCell id="86TaP4VS1eTUddmF3khq-5" value="rst_n" style="edgeLabel;html=1;align=center;verticalAlign=middle;resizable=0;points=[];fontSize=20;" vertex="1" connectable="0" parent="86TaP4VS1eTUddmF3khq-4">
                    <mxGeometry x="-0.4917" y="-1" relative="1" as="geometry">
                        <mxPoint x="-36" y="-2" as="offset"/>
                    </mxGeometry>
                </mxCell>
                <mxCell id="86TaP4VS1eTUddmF3khq-6" value="4" style="endArrow=none;html=1;fontSize=20;" edge="1" parent="9l6ZjawQ-9BJJDV0EYVd-1">
                    <mxGeometry x="1" y="14" width="50" height="50" relative="1" as="geometry">
                        <mxPoint x="462.47" y="240" as="sourcePoint"/>
                        <mxPoint x="482.47" y="220" as="targetPoint"/>
                        <mxPoint as="offset"/>
                    </mxGeometry>
                </mxCell>
                <mxCell id="86TaP4VS1eTUddmF3khq-7" value="fifo_din" style="shape=link;html=1;fontSize=20;" edge="1" parent="9l6ZjawQ-9BJJDV0EYVd-1">
                    <mxGeometry x="-1" y="-42" width="100" relative="1" as="geometry">
                        <mxPoint x="452.47" y="230" as="sourcePoint"/>
                        <mxPoint x="492.47" y="230" as="targetPoint"/>
                        <mxPoint x="-42" y="-42" as="offset"/>
                    </mxGeometry>
                </mxCell>
                <mxCell id="86TaP4VS1eTUddmF3khq-8" value="4" style="endArrow=none;html=1;fontSize=20;" edge="1" parent="9l6ZjawQ-9BJJDV0EYVd-1">
                    <mxGeometry x="1" y="14" width="50" height="50" relative="1" as="geometry">
                        <mxPoint x="741.47" y="240" as="sourcePoint"/>
                        <mxPoint x="761.47" y="220" as="targetPoint"/>
                        <mxPoint as="offset"/>
                    </mxGeometry>
                </mxCell>
                <mxCell id="86TaP4VS1eTUddmF3khq-9" value="tx_d" style="shape=link;fontSize=20;html=1;" edge="1" parent="9l6ZjawQ-9BJJDV0EYVd-1">
                    <mxGeometry x="1" y="29" width="100" relative="1" as="geometry">
                        <mxPoint x="731.47" y="230" as="sourcePoint"/>
                        <mxPoint x="771.47" y="230" as="targetPoint"/>
                        <mxPoint x="29" y="29" as="offset"/>
                    </mxGeometry>
                </mxCell>
                <mxCell id="86TaP4VS1eTUddmF3khq-10" value="" style="endArrow=none;html=1;fontSize=20;" edge="1" parent="9l6ZjawQ-9BJJDV0EYVd-1">
                    <mxGeometry width="50" height="50" relative="1" as="geometry">
                        <mxPoint x="452.47" y="310" as="sourcePoint"/>
                        <mxPoint x="492.47" y="310" as="targetPoint"/>
                    </mxGeometry>
                </mxCell>
                <mxCell id="86TaP4VS1eTUddmF3khq-11" value="fifo_w_en" style="edgeLabel;html=1;align=center;verticalAlign=middle;resizable=0;points=[];fontSize=20;" vertex="1" connectable="0" parent="86TaP4VS1eTUddmF3khq-10">
                    <mxGeometry x="-0.4917" y="-1" relative="1" as="geometry">
                        <mxPoint x="-63" y="-1" as="offset"/>
                    </mxGeometry>
                </mxCell>
                <mxCell id="86TaP4VS1eTUddmF3khq-12" value="" style="endArrow=none;html=1;fontSize=20;" edge="1" parent="9l6ZjawQ-9BJJDV0EYVd-1">
                    <mxGeometry width="50" height="50" relative="1" as="geometry">
                        <mxPoint x="731.47" y="390" as="sourcePoint"/>
                        <mxPoint x="771.47" y="390" as="targetPoint"/>
                    </mxGeometry>
                </mxCell>
                <mxCell id="86TaP4VS1eTUddmF3khq-13" value="full" style="edgeLabel;html=1;align=center;verticalAlign=middle;resizable=0;points=[];fontSize=20;" vertex="1" connectable="0" parent="86TaP4VS1eTUddmF3khq-12">
                    <mxGeometry x="-0.4917" y="-1" relative="1" as="geometry">
                        <mxPoint x="46" y="-2" as="offset"/>
                    </mxGeometry>
                </mxCell>
                <mxCell id="86TaP4VS1eTUddmF3khq-14" value="" style="endArrow=none;html=1;fontSize=20;" edge="1" parent="9l6ZjawQ-9BJJDV0EYVd-1">
                    <mxGeometry width="50" height="50" relative="1" as="geometry">
                        <mxPoint x="452.47" y="270" as="sourcePoint"/>
                        <mxPoint x="492.47" y="270" as="targetPoint"/>
                    </mxGeometry>
                </mxCell>
                <mxCell id="86TaP4VS1eTUddmF3khq-15" value="en" style="edgeLabel;html=1;align=center;verticalAlign=middle;resizable=0;points=[];fontSize=20;" vertex="1" connectable="0" parent="86TaP4VS1eTUddmF3khq-14">
                    <mxGeometry x="-0.4917" y="-1" relative="1" as="geometry">
                        <mxPoint x="-33" y="-4" as="offset"/>
                    </mxGeometry>
                </mxCell>
                <mxCell id="86TaP4VS1eTUddmF3khq-16" value="" style="endArrow=none;html=1;fontSize=20;" edge="1" parent="9l6ZjawQ-9BJJDV0EYVd-1">
                    <mxGeometry width="50" height="50" relative="1" as="geometry">
                        <mxPoint x="120" y="280" as="sourcePoint"/>
                        <mxPoint x="160" y="280" as="targetPoint"/>
                    </mxGeometry>
                </mxCell>
                <mxCell id="86TaP4VS1eTUddmF3khq-17" value="tx_clk" style="edgeLabel;html=1;align=center;verticalAlign=middle;resizable=0;points=[];fontSize=20;" vertex="1" connectable="0" parent="86TaP4VS1eTUddmF3khq-16">
                    <mxGeometry x="-0.4917" y="-1" relative="1" as="geometry">
                        <mxPoint x="-41" y="-2" as="offset"/>
                    </mxGeometry>
                </mxCell>
                <mxCell id="86TaP4VS1eTUddmF3khq-18" value="" style="endArrow=none;html=1;fontSize=20;" edge="1" parent="9l6ZjawQ-9BJJDV0EYVd-1">
                    <mxGeometry width="50" height="50" relative="1" as="geometry">
                        <mxPoint x="120" y="320" as="sourcePoint"/>
                        <mxPoint x="160" y="320" as="targetPoint"/>
                    </mxGeometry>
                </mxCell>
                <mxCell id="86TaP4VS1eTUddmF3khq-19" value="rst_n" style="edgeLabel;html=1;align=center;verticalAlign=middle;resizable=0;points=[];fontSize=20;" vertex="1" connectable="0" parent="86TaP4VS1eTUddmF3khq-18">
                    <mxGeometry x="-0.4917" y="-1" relative="1" as="geometry">
                        <mxPoint x="-36" y="-2" as="offset"/>
                    </mxGeometry>
                </mxCell>
                <mxCell id="86TaP4VS1eTUddmF3khq-20" value="" style="endArrow=none;html=1;fontSize=20;" edge="1" parent="9l6ZjawQ-9BJJDV0EYVd-1">
                    <mxGeometry width="50" height="50" relative="1" as="geometry">
                        <mxPoint x="120" y="360" as="sourcePoint"/>
                        <mxPoint x="160" y="360" as="targetPoint"/>
                    </mxGeometry>
                </mxCell>
                <mxCell id="86TaP4VS1eTUddmF3khq-21" value="fifo_w_en" style="edgeLabel;html=1;align=center;verticalAlign=middle;resizable=0;points=[];fontSize=20;" vertex="1" connectable="0" parent="86TaP4VS1eTUddmF3khq-20">
                    <mxGeometry x="-0.4917" y="-1" relative="1" as="geometry">
                        <mxPoint x="-61" y="-1" as="offset"/>
                    </mxGeometry>
                </mxCell>
                <mxCell id="cIpZ_dV9m_vdCtyc0E8n-0" value="4" style="endArrow=none;html=1;fontSize=20;" edge="1" parent="9l6ZjawQ-9BJJDV0EYVd-1">
                    <mxGeometry x="1" y="14" width="50" height="50" relative="1" as="geometry">
                        <mxPoint x="130" y="410" as="sourcePoint"/>
                        <mxPoint x="150" y="390" as="targetPoint"/>
                        <mxPoint as="offset"/>
                    </mxGeometry>
                </mxCell>
                <mxCell id="cIpZ_dV9m_vdCtyc0E8n-1" value="fifo_din" style="shape=link;html=1;fontSize=20;" edge="1" parent="9l6ZjawQ-9BJJDV0EYVd-1">
                    <mxGeometry x="-1" y="-40" width="100" relative="1" as="geometry">
                        <mxPoint x="120" y="400" as="sourcePoint"/>
                        <mxPoint x="160" y="400" as="targetPoint"/>
                        <mxPoint x="-40" y="-40" as="offset"/>
                    </mxGeometry>
                </mxCell>
                <mxCell id="cIpZ_dV9m_vdCtyc0E8n-2" value="" style="endArrow=none;html=1;fontSize=20;" edge="1" parent="9l6ZjawQ-9BJJDV0EYVd-1">
                    <mxGeometry width="50" height="50" relative="1" as="geometry">
                        <mxPoint x="120" y="440" as="sourcePoint"/>
                        <mxPoint x="160.00000000000023" y="440" as="targetPoint"/>
                    </mxGeometry>
                </mxCell>
                <mxCell id="cIpZ_dV9m_vdCtyc0E8n-3" value="tx_header" style="edgeLabel;html=1;align=center;verticalAlign=middle;resizable=0;points=[];fontSize=20;" vertex="1" connectable="0" parent="cIpZ_dV9m_vdCtyc0E8n-2">
                    <mxGeometry x="-0.4917" y="-1" relative="1" as="geometry">
                        <mxPoint x="-61" y="-1" as="offset"/>
                    </mxGeometry>
                </mxCell>
                <mxCell id="cIpZ_dV9m_vdCtyc0E8n-4" value="" style="endArrow=none;html=1;fontSize=20;" edge="1" parent="9l6ZjawQ-9BJJDV0EYVd-1">
                    <mxGeometry width="50" height="50" relative="1" as="geometry">
                        <mxPoint x="1030.47" y="380" as="sourcePoint"/>
                        <mxPoint x="1070.4700000000003" y="380" as="targetPoint"/>
                    </mxGeometry>
                </mxCell>
                <mxCell id="cIpZ_dV9m_vdCtyc0E8n-5" value="tx_en" style="edgeLabel;html=1;align=center;verticalAlign=middle;resizable=0;points=[];fontSize=20;" vertex="1" connectable="0" parent="cIpZ_dV9m_vdCtyc0E8n-4">
                    <mxGeometry x="-0.4917" y="-1" relative="1" as="geometry">
                        <mxPoint x="-41" y="-1" as="offset"/>
                    </mxGeometry>
                </mxCell>
                <mxCell id="cIpZ_dV9m_vdCtyc0E8n-6" value="4" style="endArrow=none;html=1;fontSize=20;" edge="1" parent="9l6ZjawQ-9BJJDV0EYVd-1">
                    <mxGeometry x="1" y="14" width="50" height="50" relative="1" as="geometry">
                        <mxPoint x="1040.47" y="430" as="sourcePoint"/>
                        <mxPoint x="1060.4700000000003" y="410" as="targetPoint"/>
                        <mxPoint as="offset"/>
                    </mxGeometry>
                </mxCell>
                <mxCell id="cIpZ_dV9m_vdCtyc0E8n-7" value="tx_d" style="shape=link;html=1;fontSize=20;" edge="1" parent="9l6ZjawQ-9BJJDV0EYVd-1">
                    <mxGeometry x="-1" y="-30" width="100" relative="1" as="geometry">
                        <mxPoint x="1030.47" y="420" as="sourcePoint"/>
                        <mxPoint x="1070.4700000000003" y="420" as="targetPoint"/>
                        <mxPoint x="-30" y="-30" as="offset"/>
                    </mxGeometry>
                </mxCell>
            </root>
        </mxGraphModel>
    </diagram>
</mxfile>